<svg width="23" height="23" viewBox="0 0 23 23" fill="none" xmlns="http://www.w3.org/2000/svg">
<path d="M11.5 0C5.14518 0 0 5.14519 0 11.5C0 17.8548 5.14518 23 11.5 23C17.8548 23 23 17.8548 23 11.5C23 5.14519 17.8548 0 11.5 0ZM16.6622 6.93407C16.6622 7.2237 16.56 7.4963 16.3726 7.71778L9.86445 15.2993H15.4696C16.1341 15.2993 16.6622 15.8274 16.6622 16.4918C16.6622 17.1563 16.1341 17.6844 15.4696 17.6844H7.54741C6.88297 17.6844 6.35482 17.1563 6.35482 16.4918V16.0659C6.35482 15.7763 6.45703 15.5037 6.64444 15.2822L13.1526 7.70074H7.75185C7.0874 7.70074 6.55926 7.17259 6.55926 6.50815C6.55926 5.8437 7.0874 5.31556 7.75185 5.31556H15.4526C16.117 5.31556 16.6452 5.8437 16.6452 6.50815V6.93407H16.6622Z" fill="white"/>
</svg>
