<svg width="23" height="23" viewBox="0 0 23 23" fill="none" xmlns="http://www.w3.org/2000/svg">
<path d="M9.87964 13.68L13.8315 11.4001L9.87964 9.12012V13.68Z" fill="white"/>
<path d="M11.3997 0C5.10031 0 0 5.10031 0 11.3997C0 17.6991 5.10031 22.7994 11.3997 22.7994C17.6991 22.7994 22.7994 17.6991 22.7994 11.3997C22.7994 5.10031 17.6991 0 11.3997 0ZM18.6786 15.0645C18.5097 15.7231 17.9862 16.2298 17.3275 16.4156C16.1454 16.7365 11.3828 16.7365 11.3828 16.7365C11.3828 16.7365 6.63716 16.7365 5.43808 16.4156C4.77943 16.2467 4.27278 15.7231 4.087 15.0645C3.76612 13.8823 3.76612 11.3997 3.76612 11.3997C3.76612 11.3997 3.76612 8.93399 4.087 7.73491C4.25589 7.07626 4.77943 6.56961 5.43808 6.38383C6.62027 6.06295 11.3828 6.06295 11.3828 6.06295C11.3828 6.06295 16.1285 6.06295 17.3275 6.38383C17.9862 6.55272 18.4928 7.07626 18.6786 7.73491C18.9995 8.9171 18.9995 11.3997 18.9995 11.3997C18.9995 11.3997 18.9995 13.8823 18.6786 15.0645Z" fill="white"/>
</svg>
